<svg width="459" height="71" viewBox="0 0 459 71" fill="none" xmlns="http://www.w3.org/2000/svg">
<path d="M8.096 68.864C5.792 68.864 4.128 68.544 3.104 67.904C2.08 67.2 1.44 66.272 1.184 65.12C0.992 63.968 0.896 62.784 0.896 61.568V9.056C0.896 6.24 1.44 4.32 2.528 3.296C3.616 2.272 5.568 1.75999 8.384 1.75999H44.672C45.952 1.75999 47.136 1.88799 48.224 2.144C49.312 2.336 50.176 2.944 50.816 3.96799C51.52 4.992 51.872 6.72 51.872 9.152C51.872 11.456 51.52 13.12 50.816 14.144C50.112 15.168 49.184 15.808 48.032 16.064C46.944 16.256 45.76 16.352 44.48 16.352H15.488V28.736H35.168C36.448 28.736 37.568 28.832 38.528 29.024C39.552 29.216 40.352 29.76 40.928 30.656C41.504 31.552 41.792 33.056 41.792 35.168C41.792 37.216 41.504 38.688 40.928 39.584C40.352 40.416 39.552 40.928 38.528 41.12C37.568 41.312 36.416 41.408 35.072 41.408H15.488V61.664C15.488 62.88 15.36 64.064 15.104 65.216C14.848 66.304 14.208 67.2 13.184 67.904C12.224 68.544 10.528 68.864 8.096 68.864ZM67.3415 68.864C65.0375 68.864 63.3735 68.512 62.3495 67.808C61.3255 67.104 60.6855 66.176 60.4295 65.024C60.2375 63.872 60.1415 62.688 60.1415 61.472V8.96C60.1415 7.744 60.2375 6.592 60.4295 5.504C60.6855 4.416 61.3255 3.52 62.3495 2.816C63.3735 2.112 65.0695 1.75999 67.4375 1.75999H87.4055C90.0295 1.75999 92.7175 2.24 95.4695 3.2C98.2215 4.16 100.75 5.632 103.054 7.616C105.358 9.6 107.214 12.064 108.622 15.008C110.03 17.952 110.734 21.44 110.734 25.472C110.734 28.16 110.318 30.752 109.486 33.248C108.718 35.744 107.534 38.048 105.934 40.16C104.334 42.272 102.35 44.096 99.9815 45.632C97.6135 47.104 94.8935 48.16 91.8215 48.8H74.7335V61.568C74.7335 62.784 74.6055 63.968 74.3495 65.12C74.0935 66.208 73.4535 67.104 72.4295 67.808C71.4055 68.512 69.7095 68.864 67.3415 68.864ZM107.854 66.944C105.486 68.672 103.598 69.344 102.19 68.96C100.782 68.576 99.3095 67.328 97.7735 65.216L80.8775 41.024L97.2935 38.912L109.677 56.672C110.766 58.208 111.438 59.52 111.694 60.608C112.014 61.696 111.854 62.72 111.214 63.68C110.638 64.64 109.518 65.728 107.854 66.944ZM74.7335 34.4H88.0775C88.9735 34.4 89.9015 34.24 90.8615 33.92C91.8215 33.536 92.6855 32.992 93.4535 32.288C94.2215 31.584 94.8615 30.656 95.3735 29.504C95.8855 28.352 96.1415 26.976 96.1415 25.376C96.1415 23.52 95.7575 21.92 94.9895 20.576C94.2855 19.232 93.2615 18.208 91.9175 17.504C90.5735 16.736 89.0055 16.352 87.2135 16.352H74.7335V34.4ZM146.957 69.728C142.285 69.728 138.157 68.832 134.573 67.04C131.053 65.184 128.045 62.752 125.549 59.744C123.117 56.672 121.293 53.248 120.077 49.472C118.861 45.632 118.253 41.728 118.253 37.76V9.056C118.253 7.776 118.349 6.592 118.541 5.504C118.797 4.352 119.437 3.424 120.461 2.72C121.485 2.016 123.181 1.664 125.549 1.664C127.981 1.664 129.709 2.016 130.733 2.72C131.757 3.424 132.365 4.352 132.557 5.504C132.813 6.592 132.941 7.808 132.941 9.152V37.76C132.941 40.576 133.389 43.296 134.285 45.92C135.245 48.544 136.781 50.72 138.893 52.448C141.005 54.176 143.789 55.04 147.245 55.04C150.189 55.04 152.717 54.336 154.829 52.928C156.941 51.456 158.573 49.44 159.725 46.88C160.877 44.256 161.453 41.184 161.453 37.664V8.48C161.453 7.328 161.581 6.24 161.837 5.216C162.093 4.192 162.733 3.36 163.757 2.72C164.781 2.016 166.477 1.664 168.845 1.664C171.213 1.664 172.877 2.048 173.837 2.816C174.861 3.52 175.469 4.416 175.661 5.504C175.917 6.592 176.045 7.808 176.045 9.152V37.952C176.045 41.984 175.405 45.888 174.125 49.664C172.909 53.44 171.053 56.832 168.557 59.84C166.125 62.848 163.085 65.248 159.437 67.04C155.853 68.832 151.693 69.728 146.957 69.728ZM234.171 1.664C235.259 1.664 236.251 1.76 237.147 1.952C238.043 2.144 238.779 2.688 239.355 3.584C239.995 4.416 240.315 5.888 240.315 8C240.315 9.984 239.995 11.424 239.355 12.32C238.779 13.216 238.011 13.76 237.051 13.952C236.091 14.144 235.067 14.24 233.979 14.24H218.523V61.76C218.523 62.976 218.395 64.128 218.139 65.216C217.947 66.304 217.339 67.2 216.315 67.904C215.355 68.544 213.691 68.864 211.323 68.864C209.019 68.864 207.355 68.544 206.331 67.904C205.307 67.2 204.699 66.304 204.507 65.216C204.315 64.064 204.219 62.88 204.219 61.664V14.24H188.571C187.547 14.24 186.555 14.144 185.595 13.952C184.635 13.696 183.867 13.152 183.291 12.32C182.715 11.424 182.427 9.952 182.427 7.904C182.427 5.856 182.715 4.416 183.291 3.584C183.867 2.688 184.635 2.144 185.595 1.952C186.555 1.76 187.547 1.664 188.571 1.664H234.171ZM291.923 58.688C292.691 60.288 293.107 61.664 293.171 62.816C293.235 63.904 292.883 64.896 292.115 65.792C291.411 66.624 290.227 67.456 288.563 68.288C286.003 69.504 284.019 69.856 282.611 69.344C281.203 68.896 279.891 67.392 278.675 64.832L259.859 25.472L241.139 64.832C239.859 67.328 238.515 68.8 237.107 69.248C235.763 69.76 233.811 69.408 231.251 68.192C229.587 67.424 228.371 66.624 227.603 65.792C226.899 64.896 226.579 63.872 226.643 62.72C226.707 61.504 227.155 60.096 227.987 58.496L253.235 5.984C253.875 4.704 254.803 3.68 256.019 2.912C257.299 2.144 258.611 1.75999 259.955 1.75999C260.915 1.75999 261.811 1.952 262.643 2.336C263.475 2.656 264.211 3.136 264.851 3.776C265.555 4.416 266.131 5.184 266.579 6.08L291.923 58.688ZM243.731 53.216L249.683 40.832H270.131L276.083 53.216H243.731ZM305.17 68.864C302.866 68.864 301.202 68.512 300.178 67.808C299.218 67.104 298.61 66.208 298.354 65.12C298.098 63.968 297.97 62.752 297.97 61.472V8.96C297.97 7.744 298.098 6.624 298.354 5.6C298.61 4.512 299.25 3.616 300.273 2.912C301.298 2.208 302.994 1.856 305.362 1.856C306.962 1.856 308.178 1.952 309.01 2.144C309.842 2.336 310.45 2.624 310.834 3.008C311.218 3.328 311.634 3.712 312.082 4.16L333.682 33.344H332.242L353.938 4.16C354.45 3.52 354.962 3.04 355.474 2.72C355.986 2.4 356.626 2.17599 357.394 2.048C358.226 1.92 359.378 1.856 360.85 1.856C363.154 1.856 364.818 2.208 365.842 2.912C366.866 3.616 367.506 4.54399 367.762 5.696C368.018 6.784 368.146 7.936 368.146 9.152V61.664C368.146 62.88 368.018 64.032 367.762 65.12C367.506 66.208 366.866 67.104 365.842 67.808C364.818 68.512 363.122 68.864 360.754 68.864C358.45 68.864 356.786 68.512 355.762 67.808C354.738 67.104 354.098 66.176 353.842 65.024C353.586 63.872 353.458 62.688 353.458 61.472V27.2L339.154 47.456C338.898 47.776 338.546 48.224 338.098 48.8C337.65 49.312 337.01 49.76 336.178 50.144C335.41 50.528 334.354 50.72 333.01 50.72C331.602 50.72 330.482 50.528 329.65 50.144C328.882 49.76 328.274 49.312 327.826 48.8C327.378 48.288 326.994 47.84 326.674 47.456L312.466 27.296V61.664C312.466 62.88 312.338 64.032 312.082 65.12C311.826 66.208 311.186 67.104 310.162 67.808C309.202 68.512 307.538 68.864 305.17 68.864ZM383.165 68.864C380.861 68.864 379.197 68.544 378.173 67.904C377.149 67.2 376.509 66.272 376.253 65.12C376.061 63.968 375.965 62.784 375.965 61.568V9.056C375.965 7.776 376.061 6.592 376.253 5.504C376.509 4.416 377.149 3.52 378.173 2.816C379.197 2.112 380.893 1.75999 383.261 1.75999C385.693 1.75999 387.389 2.112 388.349 2.816C389.373 3.52 389.981 4.416 390.173 5.504C390.429 6.592 390.557 7.808 390.557 9.152V61.664C390.557 62.88 390.429 64.064 390.173 65.216C389.917 66.304 389.277 67.2 388.253 67.904C387.293 68.544 385.597 68.864 383.165 68.864ZM455.11 67.136C453.638 68.416 452.358 69.248 451.27 69.632C450.182 70.016 449.126 69.952 448.102 69.44C447.142 68.928 446.054 67.968 444.838 66.56L399.622 13.856C397.83 11.936 396.934 10.208 396.934 8.672C396.934 7.136 397.99 5.44 400.102 3.584C401.51 2.24 402.758 1.376 403.846 0.991999C404.934 0.607996 405.99 0.671995 407.014 1.184C408.038 1.696 409.158 2.688 410.374 4.16L455.59 56.96C457.382 58.944 458.278 60.672 458.278 62.144C458.342 63.616 457.286 65.28 455.11 67.136ZM400.102 67.136C397.99 65.28 396.934 63.616 396.934 62.144C396.934 60.672 397.83 58.944 399.622 56.96L444.838 4.16C446.054 2.688 447.174 1.696 448.198 1.184C449.222 0.671995 450.278 0.607996 451.366 0.991999C452.454 1.376 453.702 2.24 455.11 3.584C457.286 5.44 458.342 7.136 458.278 8.672C458.278 10.208 457.382 11.936 455.59 13.856L410.374 66.56C409.222 67.968 408.134 68.928 407.109 69.44C406.086 69.952 405.03 70.016 403.942 69.632C402.854 69.248 401.574 68.416 400.102 67.136Z" fill="#42075D"/>
</svg>
