<svg width="125" height="19" viewBox="0 0 125 19" fill="none" xmlns="http://www.w3.org/2000/svg">
<path d="M0.321023 18V0.545454H12.2358V3.97159H4.53977V7.55114H11.4773V10.9858H4.53977V18H0.321023ZM14.3601 18V0.545454H21.5703C22.8771 0.545454 24.005 0.78125 24.9538 1.25284C25.9084 1.71875 26.6442 2.3892 27.1612 3.2642C27.6783 4.13352 27.9368 5.16477 27.9368 6.35795C27.9368 7.56818 27.6726 8.59659 27.1442 9.44318C26.6158 10.2841 25.8658 10.9261 24.8942 11.3693C23.9226 11.8068 22.772 12.0256 21.4425 12.0256H16.8828V8.7017H20.6584C21.2947 8.7017 21.826 8.61932 22.2521 8.45455C22.6839 8.28409 23.0107 8.02841 23.2322 7.6875C23.4538 7.34091 23.5646 6.89773 23.5646 6.35795C23.5646 5.81818 23.4538 5.37216 23.2322 5.01989C23.0107 4.66193 22.6839 4.39489 22.2521 4.21875C21.8203 4.03693 21.2891 3.94602 20.6584 3.94602H18.5788V18H14.3601ZM24.1868 10.0227L28.5334 18H23.9311L19.6697 10.0227H24.1868ZM40.8104 0.545454H45.0206V11.804C45.0206 13.1051 44.7109 14.2386 44.0916 15.2045C43.4723 16.1648 42.6087 16.9091 41.5007 17.4375C40.3928 17.9602 39.1058 18.2216 37.6399 18.2216C36.157 18.2216 34.8615 17.9602 33.7536 17.4375C32.6456 16.9091 31.7848 16.1648 31.1712 15.2045C30.5575 14.2386 30.2507 13.1051 30.2507 11.804V0.545454H34.4695V11.4375C34.4695 12.0398 34.6001 12.5767 34.8615 13.0483C35.1286 13.5199 35.5007 13.8892 35.978 14.1562C36.4553 14.4233 37.0092 14.5568 37.6399 14.5568C38.2706 14.5568 38.8217 14.4233 39.2933 14.1562C39.7706 13.8892 40.1428 13.5199 40.4098 13.0483C40.6768 12.5767 40.8104 12.0398 40.8104 11.4375V0.545454ZM47.0938 3.97159V0.545454H61.8466V3.97159H56.554V18H52.3949V3.97159H47.0938ZM65.5028 18H60.9688L66.858 0.545454H72.4744L78.3636 18H73.8295L69.7301 4.94318H69.5938L65.5028 18ZM64.8977 11.1307H74.375V14.3352H64.8977V11.1307ZM80.2429 0.545454H85.4673L89.8991 11.3523H90.1037L94.5355 0.545454H99.7599V18H95.652V7.27841H95.5071L91.3139 17.8892H88.6889L84.4957 7.21875H84.3509V18H80.2429V0.545454ZM106.61 0.545454V18H102.391V0.545454H106.61ZM113.528 0.545454L116.716 6.05966H116.852L120.074 0.545454H124.795L119.528 9.27273L124.966 18H120.125L116.852 12.4261H116.716L113.443 18H108.636L114.048 9.27273L108.773 0.545454H113.528Z" fill="white"/>
</svg>
